<svg xmlns="http://www.w3.org/2000/svg" display="block" preserveAspectRatio="none" viewBox="0 0 1044 1024"><circle cx="534" cy="514" r="510" display="inline"/><path fill="#fcfdfc" d="M1019 514a485 485 0 1 0-970 0 485 485 0 0 0 970 0" display="inline"/><path d="M235 106v11h203l-45 139h-50a472 462 0 0 0-168-94l-18 15a451 442 0 0 1 153 772l17 11a472 462 0 0 0 133-548h565v-12H613l33-138h42l27 46 27-46h76l21 63 13-7-16-56h132v-6H834l-38-134-73 134h-9l-63-109-25 109h-60l-7-14-9 14h-46l-59-139h392v-11zm205 59 41 91h-67zm351 14 25 77h-71zm-133 32 26 45h-37zm-468 21c-3 8-7 21-19 22h-12v18h31v82h23V232zm159 30h42l-10 32a472 462 0 0 0-32-32m63 0h72l37 83 36-50 55 105H454a472 462 0 0 0-57-87zm95 0h40l-23 39zm62 0h56l-17 77zm148 0h2l-1 2zm-385 82c-41 0-44 40-41 41h19c-1-8 1-25 21-24 26-1 22 24 21 25-7 33-67 52-63 82h84v-21h-46c19-16 44-39 46-61 0-22-10-41-41-42m-73 17c-14 1-62 27-63 29-1 5 14 3 23 6L41 582l3 6 182-188c9 11 4 26 8 28 5 0 35-64 27-67zm379 119-128 50 128 50v-42h192v-16H638zm-242 67c-42-1-43 40-40 41h17c-1-7 1-23 23-22 24 0 24 16 16 27-7 10-28 8-28 8v16c45-6 38 42 12 40-22-2-23-26-23-27h-17c-2 12 4 45 40 45 34 5 66-53 20-66 29-10 28-60-20-62m-84 5L40 615l5 21 271-83zm500 48v42H620v16h192v42l128-50zM350 733c-14 1-45 53-52 78v17h48v26h23v-26h13v-17h-13v-78zm-7 27c5 0 3 42 2 51h-28a151 151 0 0 1 26-51m223 5v155h17V765zm218 0v155h20V765zm-297 1v154h20V766zm150 0v154h22V766zm74 0v154h22V766zm107 68v81h16v-81zm-287 1v85h11v-85zm146 0v82h12v-82zm72 0v81h13v-81zm-144 1v81h11v-81z"/></svg>