<svg xmlns="http://www.w3.org/2000/svg" display="block" preserveAspectRatio="none" viewBox="0 0 1470.5 1524.6"><path fill="#d0d0d0" d="m1126 342.6-21 19-32 24-3 3-2 4-7 2q-5-1-7 3c2 9-27 53-25 67l-1 3-10 7 5 1 9 4 5 1 3 1 1 1h2l1 1 3 1 2 1h1l2 1 11 4 4 1 6 3 1 1 5 2 4 1 2 1h2l3 2h1l1 1h2l3 2h2l2 1 3 1h3l2 1 10 4 3 1h1l3 1 2 1h2v1h1l4 1h2v1c1 0 9 4 8-4 3-9 21-30 28-37 10 4 15 8 24 14l5-5-19-13-25-18c2-4 1-4-2-8-1-2-26-16-30-19l-24-16 1-2c10-4 42-32 47-42-1-21-2-25-24-25" display="inline"/><path fill="#a7a7a8" d="M1030 468.6c-9.2 0-14.4 4.9-16.2 8.2l-41.2 123.8-45.1 136.8c-1.1 1.2-4.7.1-7.7-1.4l-103.6-74.5c-65.2-47-88.3-66-113.2-80-9-5-34-2-294-2s-287-1-297 1c-11.6 6-36.3-15.3-85 303.6-36 479.3-23 460.2-19.7 470.5.9 2.3 10.1 22.2 59.7 16 49.6-6 62.6-9.4 63.6-16 2.2-13.4 3.3-51.8 3.8-218.5.5-166.8 1-172.3 1.7-177.7q.6-1.4 2-1.1c.7 0 1.7.5 1.9 2.3l47 588.9 432-1 22.5-264L682 826l.3-.4c14.5.4 62.8 24 171.8 71 108.9 47 145.9 65 155.9 63 11-1 31-68 81.5-208.5s71.5-204 74-220.5c0-1.8-.7-3.5-3-5 0 0-113.5-57-132.5-57"/><path fill="#d0d0d0" d="M9 1357.6h120a60 119 0 0 1-120 0m392-1162a148 183 0 1 0 .1 0z" display="inline"/><path fill="#fafafa" d="m1181 22.6-6 4c-5-2-6-3-11-2-4 1-4 1-8-2q-14 18-25 39c-12 22-30 40-37 64l-2 3c-18 14-41 58-56 78-23 30-41 63-62 94l-12 21q-5 12 6 19c6 6 78 55 86 57q2-4 7-3 5-1 9-4l2-1 1-4 32-24 21-19c22 0 23 4 24 25-5 10-37 38-47 42l-1 2 24 16c4 3 29 17 30 19 3 4 4 4 2 8l25 18 19 13-5 5q8 10 19 15c13 7 24 17 35 1l6-10c17-31 40-57 57-88 13-24 30-42 42-67l3-3c21-29 45-69 64-99 8-8 19-21 24-30v-19l-24-14-33-20-7-4c-22-18-59-38-84-54-12-7-19-13-29-21q-12-5-22-12c-21-15-46-28-67-43" display="inline"/><path fill="none" stroke="#49484b" stroke-linecap="round" stroke-linejoin="round" stroke-width="25.1" d="M1172.1 13.9 959.9 332.4 1244.4 511l212.2-318.6Z" display="inline"/><path fill="#d0d0d0" d="m1126 342.6-21 19-32 24-2.2 2.2-.4.3c-3.2 3-6.4 5.6-9.7 6.1l-4.6 1-.6.4q-.9.8-1.5 2l-1.1 2.2-3.6 13.2c-3 6.6-6.9 14.3-10.5 21.8l2.2 3.9q.5 1 1.3 2c2 2 3.6 3.4 6 4.6 4.4 2.1 9.1 3 13.8 3.8l3 .4q2.4.3 4.7.2 2.5.2 4.8-.6c.7-.3 1.9-1.4 2.3-1.9q.7-.7 1.2-1.5.8-.8 1.4-1.7 1.4-2 2.5-4l.8-1.3.2-.9.2-.2.2-.2q0-.4.2-.7l.2-.3.3-.7q0-.2.3-.5l9.6-3.4 2.4-6.7s3.8-5.9 6.3-15l.3-.5c10-4 42-32 47-42-1-21-2-25-24-25" display="inline"/></svg>